<svg width="32" height="32" viewBox="0 0 32 32" fill="none" xmlns="http://www.w3.org/2000/svg">
<g id="Dribbble">
<path id="Vector" d="M13.9466 12.4C14.2666 12.2933 14.5733 12.1733 14.88 12.0533C13.7466 9.89333 12.4666 7.81333 11.04 5.82666C7.99996 7.31999 5.71996 10.12 4.95996 13.48C7.99996 13.72 11.0799 13.3733 13.9466 12.4Z" fill="#4D5566"/>
<path id="Vector_2" d="M13.2265 17.7335C14.3999 17.1335 15.5999 16.6535 16.8532 16.2802C16.7999 16.1202 16.7332 15.9602 16.6665 15.8135C16.3865 15.1468 16.0798 14.4935 15.7732 13.8535C15.3865 14.0002 14.9998 14.1602 14.5865 14.3068C12.0665 15.1468 9.37316 15.5868 6.69316 15.5868C6.02649 15.5868 5.35982 15.5468 4.69316 15.4935C4.67982 15.6668 4.6665 15.8268 4.6665 16.0002C4.6665 18.5735 5.54649 20.9468 6.98649 22.8535C8.73316 20.7602 10.8532 18.9868 13.2265 17.7335Z" fill="#4D5566"/>
<path id="Vector_3" d="M22.7733 6.93317C20.8799 5.51984 18.5333 4.6665 16 4.6665C14.9466 4.6665 13.9333 4.8265 12.96 5.09317C14.3466 7.0665 15.6 9.11984 16.72 11.2532C19.3333 9.95984 21.3466 8.3465 22.7733 6.93317Z" fill="#4D5566"/>
<path id="Vector_4" d="M14.1468 19.507C11.4535 20.9337 9.56016 22.8003 8.3335 24.3203C10.3468 26.187 13.0402 27.3337 16.0002 27.3337C17.3735 27.3337 18.6802 27.0803 19.9068 26.627C19.3735 23.747 18.6002 20.9203 17.6002 18.187C16.4002 18.5203 15.2535 18.947 14.1468 19.507Z" fill="#4D5566"/>
<path id="Vector_5" d="M19.5601 17.7201C20.5067 20.3334 21.2401 23.0134 21.7601 25.7468C24.5734 24.0801 26.5867 21.2401 27.16 17.9068C25.5334 17.5468 22.7601 17.1868 19.5601 17.7201Z" fill="#4D5566"/>
<path id="Vector_6" d="M17.6 13.0404C17.92 13.7071 18.2266 14.3604 18.52 15.0271C18.6266 15.2938 18.72 15.5604 18.8266 15.8271C22.3466 15.1604 25.44 15.5071 27.3333 15.8938C27.3066 12.9471 26.1333 10.2671 24.2533 8.26709C22.7066 9.81376 20.5066 11.6138 17.6 13.0404Z" fill="#4D5566"/>
</g>
</svg>
