<svg width="32" height="32" viewBox="0 0 32 32" fill="none" xmlns="http://www.w3.org/2000/svg">
<g id="Instagram">
<g id="Group">
<path id="Vector" d="M15.9998 19.7607C18.0664 19.7607 19.7598 18.0674 19.7598 16.0007C19.7598 13.9341 18.0664 12.2407 15.9998 12.2407C13.9331 12.2407 12.2397 13.9341 12.2397 16.0007C12.2397 18.0674 13.9331 19.7607 15.9998 19.7607Z" fill="#4D5566"/>
<path id="Vector_2" d="M22.8532 2.66699H9.14648C5.57315 2.66699 2.6665 5.57366 2.6665 9.14699V22.8537C2.6665 26.427 5.57315 29.3337 9.14648 29.3337H22.8532C26.4265 29.3337 29.3332 26.427 29.3332 22.8537V9.14699C29.3332 5.57366 26.4265 2.66699 22.8532 2.66699ZM22.8665 10.547C22.1065 10.547 21.4932 9.93366 21.4932 9.18699C21.4932 8.42699 22.1065 7.81366 22.8665 7.81366C23.6132 7.81366 24.2265 8.42699 24.2265 9.18699C24.2265 9.93366 23.6132 10.547 22.8665 10.547ZM15.9998 10.2403C19.1732 10.2403 21.7598 12.827 21.7598 16.0003C21.7598 19.1737 19.1732 21.7603 15.9998 21.7603C12.8265 21.7603 10.2398 19.1737 10.2398 16.0003C10.2398 12.827 12.8265 10.2403 15.9998 10.2403Z" fill="#4D5566"/>
</g>
</g>
</svg>
