<svg width="32" height="32" viewBox="0 0 32 32" fill="none" xmlns="http://www.w3.org/2000/svg">
<g id="Linkedin">
<path id="Vector" d="M22.8532 2.6665H9.14648C5.57315 2.6665 2.6665 5.57317 2.6665 9.1465V22.8532C2.6665 26.4265 5.57315 29.3332 9.14648 29.3332H22.8532C26.4265 29.3332 29.3332 26.4265 29.3332 22.8532V9.1465C29.3332 5.57317 26.4265 2.6665 22.8532 2.6665ZM11.8932 12.2265C11.1465 12.2265 10.5199 11.6132 10.5199 10.8665C10.5199 10.1065 11.1332 9.49317 11.8798 9.49317H11.8932C12.6532 9.49317 13.2665 10.1065 13.2665 10.8665C13.2665 11.6132 12.6532 12.2265 11.8932 12.2265ZM12.8665 14.2932V21.1332C12.8665 21.6932 12.4265 22.1332 11.8665 22.1332C11.3198 22.1332 10.8665 21.6932 10.8665 21.1332V14.2932C10.8665 13.7332 11.3198 13.2932 11.8665 13.2932C12.4265 13.2932 12.8665 13.7332 12.8665 14.2932ZM21.1332 21.1332C21.1332 21.6932 20.6798 22.1332 20.1332 22.1332C19.5732 22.1332 19.1332 21.6932 19.1332 21.1332V18.0132C19.1332 17.1732 18.9598 17.0265 18.8265 16.9065C18.6665 16.7598 18.3865 16.6665 18.0398 16.6532C17.7598 16.6665 17.4798 16.7598 17.3198 16.9065C17.1865 17.0265 17.0132 17.1732 17.0132 18.0132V21.1332C17.0132 21.6932 16.5732 22.1332 16.0132 22.1332C15.4665 22.1332 15.0132 21.6932 15.0132 21.1332V18.0132C15.0132 16.7998 15.3065 16.0265 15.9865 15.4132C16.5065 14.9465 17.2132 14.6932 18.0398 14.6532C18.9332 14.6932 19.6398 14.9465 20.1732 15.4132C20.8398 16.0265 21.1332 16.7998 21.1332 18.0132V21.1332Z" fill="#4D5566"/>
</g>
</svg>
