<svg width="32" height="32" viewBox="0 0 32 32" fill="none" xmlns="http://www.w3.org/2000/svg">
<g id="Pinterest">
<path id="Vector" d="M15.9998 2.6665C8.65317 2.6665 2.6665 8.65317 2.6665 15.9998C2.6665 23.3465 8.65317 29.3332 15.9998 29.3332C23.3465 29.3332 29.3332 23.3465 29.3332 15.9998C29.3332 8.65317 23.3465 2.6665 15.9998 2.6665ZM13.9732 27.9732C13.8532 28.4132 13.4532 28.7065 13.0132 28.7065C12.9198 28.7065 12.8398 28.7065 12.7465 28.6798C12.2132 28.5332 11.8932 27.9865 12.0398 27.4532L12.2398 26.6932L15.0398 16.1865C15.1732 15.6665 15.7198 15.3332 16.2532 15.4798C16.7865 15.6265 17.1065 16.1732 16.9732 16.7065L15.9465 20.5865C16.0532 20.5865 16.1732 20.6265 16.2798 20.6665C16.6265 20.8132 16.9732 20.8932 17.3198 20.8932H17.3732C19.1332 20.8932 21.0665 18.9865 21.4532 16.8665C21.6132 15.9198 21.4932 15.0398 21.0932 14.2532C20.1598 12.4132 17.9598 11.5865 16.3198 11.5865C14.3998 11.5865 12.8398 12.1865 11.8265 13.3065C10.9998 14.2132 10.6132 15.1865 10.6932 16.2132C10.7732 17.3465 11.4132 18.1732 11.7865 18.5598C12.1598 18.9598 12.1465 19.5865 11.7465 19.9732C11.3465 20.3598 10.7198 20.3465 10.3332 19.9465C9.77317 19.3598 8.82649 18.1198 8.69316 16.3465C8.61316 15.2665 8.83984 13.6265 10.3332 11.9598C11.7198 10.4265 13.8532 9.5865 16.3198 9.5865C18.6265 9.5865 21.5465 10.7465 22.8798 13.3332C23.2932 14.1465 23.7198 15.4798 23.4132 17.2132C22.9332 19.9865 20.3865 22.8932 17.3732 22.8932H17.2665C16.6665 22.8798 16.0665 22.7465 15.4798 22.4932C15.4665 22.4798 15.4532 22.4798 15.4398 22.4665L14.1865 27.1865L13.9732 27.9732Z" fill="#4D5566"/>
</g>
</svg>
